<svg xmlns="http://www.w3.org/2000/svg" viewBox="0 0 480 300" font-family="Poppins, system-ui, sans-serif">
  <rect width="480" height="300" fill="#f6f6f3"/>
  <rect x="1" y="1" width="478" height="298" fill="none" stroke="#e2e1dd"/>
  <defs><marker id="a" markerWidth="9" markerHeight="9" refX="8" refY="3" orient="auto"><path d="M0,0 L0,6 L8,3 z" fill="#666"/></marker></defs>
  <text x="240" y="30" text-anchor="middle" font-size="15" font-weight="600" fill="#1a1a1a">Gambar 8. Topologi Jaringan Komputer</text>
  <rect x="190" y="60" width="100" height="42" rx="6" fill="#dbe7ff" stroke="#2563eb"/>
  <text x="240.0" y="85.0" text-anchor="middle" font-size="12" fill="#1a1a1a">Server</text>
  <rect x="190" y="135" width="100" height="42" rx="6" fill="#fde9c8" stroke="#d08a1d"/>
  <text x="240.0" y="160.0" text-anchor="middle" font-size="12" fill="#1a1a1a">Switch</text>
  <line x1="240" y1="102" x2="240" y2="133" stroke="#666" stroke-width="2" marker-end="url(#a)"/>
  <rect x="50" y="215" width="90" height="40" rx="6" fill="#eee" stroke="#666"/>
  <text x="95.0" y="239.0" text-anchor="middle" font-size="12" fill="#1a1a1a">Klien 1</text>
  <rect x="195" y="215" width="90" height="40" rx="6" fill="#eee" stroke="#666"/>
  <text x="240.0" y="239.0" text-anchor="middle" font-size="12" fill="#1a1a1a">Klien 2</text>
  <rect x="340" y="215" width="90" height="40" rx="6" fill="#eee" stroke="#666"/>
  <text x="385.0" y="239.0" text-anchor="middle" font-size="12" fill="#1a1a1a">Klien 3</text>
  <line x1="220" y1="177" x2="100" y2="213" stroke="#666" stroke-width="2" marker-end="url(#a)"/>
  <line x1="240" y1="177" x2="240" y2="213" stroke="#666" stroke-width="2" marker-end="url(#a)"/>
  <line x1="262" y1="177" x2="380" y2="213" stroke="#666" stroke-width="2" marker-end="url(#a)"/>
  <text x="240" y="290" text-anchor="middle" font-size="12" fill="#444">Switch menghubungkan banyak klien ke server.</text>
</svg>
